<?xml version="1.0" encoding="UTF-8"?>
<svg width="24px" height="24px" viewBox="0 0 24 24" version="1.1" xmlns="http://www.w3.org/2000/svg" xmlns:xlink="http://www.w3.org/1999/xlink">
    <!-- Generator: Sketch 57.1 (83088) - https://sketch.com -->
    <title>ico_cross</title>
    <desc>Created with Sketch.</desc>
    <g id="🤓-Example-Page" stroke="none" stroke-width="1" fill="none" fill-rule="evenodd">
        <g id="Top-Mobile(iphone8)-A-menu" transform="translate(-25.000000, -23.000000)" fill="#FFFFFF">
            <g id="cancel" transform="translate(25.000000, 23.000000)">
                <g id="Path">
                    <path d="M0.747826087,23.3217391 C1.16521739,23.7391304 1.70434783,23.9478261 2.26086957,23.9478261 C2.8173913,23.9478261 3.35652174,23.7391304 3.77391304,23.3217391 L12.0521739,15.0434783 L20.3304348,23.3217391 C20.7478261,23.7391304 21.2869565,23.9478261 21.8434783,23.9478261 C22.4,23.9478261 22.9391304,23.7391304 23.3565217,23.3217391 C24.1913043,22.4869565 24.1913043,21.1478261 23.3565217,20.3130435 L15.0434783,12.0347826 L23.3217391,3.75652174 C24.1565217,2.92173913 24.1565217,1.5826087 23.3217391,0.747826087 C22.4869565,-0.0869565217 21.1478261,-0.0869565217 20.3130435,0.747826087 L12.0347826,9.02608696 L3.75652174,0.747826087 C2.92173913,-0.0869565217 1.5826087,-0.0869565217 0.747826087,0.747826087 C-0.0869565217,1.5826087 -0.0869565217,2.92173913 0.747826087,3.75652174 L9.02608696,12.0347826 L0.747826087,20.3130435 C-0.0869565217,21.1478261 -0.0869565217,22.4869565 0.747826087,23.3217391 Z" fill-rule="nonzero"></path>
                </g>
            </g>
        </g>
    </g>
</svg>