<?xml version="1.0" encoding="UTF-8"?>
<svg width="22px" height="24px" viewBox="0 0 22 24" version="1.1" xmlns="http://www.w3.org/2000/svg" xmlns:xlink="http://www.w3.org/1999/xlink">
    <!-- Generator: Sketch 57.1 (83088) - https://sketch.com -->
    <title>icon-musical-note</title>
    <desc>Created with Sketch.</desc>
    <g id="🤓-Example-Page" stroke="none" stroke-width="1" fill="none" fill-rule="evenodd">
        <g id="Top---PC-A" transform="translate(-289.000000, -978.000000)" fill="#FFFFFF">
            <g id="Group-9" transform="translate(285.000000, 974.000000)">
                <g id="icon-musical-note" transform="translate(4.000000, 4.000000)">
                    <g id="musical-note">
                        <path d="M21.9927517,5.27779079 L21.9927517,0.678627615 C21.9927517,0.462728033 21.8855592,0.256870293 21.7120093,0.13134728 C21.533355,0.00582426778 21.3036566,-0.0343430962 21.0943759,0.0309288703 L7.16444548,4.38406695 C6.87859861,4.47444351 6.68463109,4.73553138 6.68463109,5.03176569 L6.68463109,9.63594979 L6.68463109,9.64097071 L6.68463109,18.4426444 C5.9547007,17.9455732 5.02059397,17.6744435 4.04054756,17.6744435 C3.00435267,17.6744435 2.01920186,17.9807197 1.26885383,18.5330209 C0.462357309,19.1305105 0.0182737819,19.9388787 0.0182737819,20.8175397 C0.0182737819,21.6962008 0.462357309,22.504569 1.26885383,23.1020586 C2.01920186,23.6543598 2.99924826,23.960636 4.04054756,23.960636 C5.08184687,23.960636 6.06189327,23.6543598 6.8122413,23.1020586 C7.61873782,22.504569 8.06282135,21.6962008 8.06282135,20.8175397 L8.06282135,10.1330209 L20.6145615,6.20666109 L20.6145615,14.0694226 C19.8846311,13.5723515 18.9505244,13.3012218 17.970478,13.3012218 C16.9342831,13.3012218 15.9491323,13.6074979 15.1987842,14.1597992 C14.3922877,14.7572887 13.9482042,15.5656569 13.9482042,16.444318 C13.9482042,17.3229791 14.3922877,18.1313473 15.1987842,18.7288368 C15.9491323,19.2811381 16.9291787,19.5874142 17.970478,19.5874142 C19.0117773,19.5874142 19.9918237,19.2811381 20.7421717,18.7288368 C21.5486682,18.1313473 21.9927517,17.3229791 21.9927517,16.444318 L21.9927517,5.28281172 C21.9927517,5.27779079 21.9927517,5.27779079 21.9927517,5.27779079 Z M4.04054756,22.6049874 C2.60620882,22.6049874 1.39646404,21.7865774 1.39646404,20.8175397 C1.39646404,19.8485021 2.60620882,19.0300921 4.04054756,19.0300921 C5.47488631,19.0300921 6.68463109,19.8485021 6.68463109,20.8175397 C6.68463109,21.7915983 5.47488631,22.6049874 4.04054756,22.6049874 Z M8.06282135,8.7070795 L8.06282135,5.5238159 L20.6145615,1.60247699 L20.6145615,4.78574059 L8.06282135,8.7070795 Z M17.9755824,18.2317657 C16.5412436,18.2317657 15.3314988,17.4133556 15.3314988,16.444318 C15.3314988,15.4752803 16.5412436,14.6568703 17.9755824,14.6568703 C19.4099211,14.6568703 20.6196659,15.4752803 20.6196659,16.444318 C20.6145615,17.4133556 19.4048167,18.2317657 17.9755824,18.2317657 Z" id="Shape" fill-rule="nonzero"></path>
                    </g>
                </g>
            </g>
        </g>
    </g>
</svg>